<svg viewBox="0 0 200 240" fill="none" xmlns="http://www.w3.org/2000/svg">
  <!-- Traditional Magic Lantern (Fanos) - Circular Souq Market Symbol -->
  
  <!-- Lantern Handle/Chain -->
  <path
    d="M100 20 Q100 15 105 12 Q110 10 115 12 Q120 15 120 20"
    stroke="#8b4513"
    stroke-width="3"
    fill="none"
    stroke-linecap="round"
  />
  <circle cx="100" cy="25" r="3" fill="#d4a574" />
  
  <!-- Lantern Top/Crown - Circular -->
  <ellipse
    cx="100"
    cy="50"
    rx="45"
    ry="12"
    fill="#8b4513"
  />
  <ellipse
    cx="100"
    cy="50"
    rx="42"
    ry="10"
    fill="#a0522d"
  />
  
  <!-- Lantern Body - Circular Main Structure -->
  <ellipse
    cx="100"
    cy="120"
    rx="55"
    ry="65"
    fill="#a0522d"
  />
  <ellipse
    cx="100"
    cy="120"
    rx="50"
    ry="60"
    fill="#8b4513"
  />
  
  <!-- Traditional Geometric Cutouts - Circular Arrangement -->
  <!-- Top Section - Circular Pattern -->
  <circle cx="100" cy="90" r="10" fill="#d4a574" opacity="0.9" />
  <circle cx="80" cy="85" r="7" fill="#d4a574" opacity="0.9" />
  <circle cx="120" cy="85" r="7" fill="#d4a574" opacity="0.9" />
  
  <!-- Middle Section - Star Pattern (Central) -->
  <path
    d="M100 115 L102 110 L107 110 L103 106 L105 101 L100 104 L95 101 L97 106 L93 110 L98 110 Z"
    fill="#d4a574"
    opacity="0.9"
  />
  <!-- Side Stars -->
  <path
    d="M80 120 L82 115 L87 115 L83 111 L85 106 L80 109 L75 106 L77 111 L73 115 L78 115 Z"
    fill="#d4a574"
    opacity="0.9"
  />
  <path
    d="M120 120 L122 115 L127 115 L123 111 L125 106 L120 109 L115 106 L117 111 L113 115 L118 115 Z"
    fill="#d4a574"
    opacity="0.9"
  />
  
  <!-- Lower Section - Diamond Pattern -->
  <path
    d="M100 145 L105 140 L110 145 L105 150 Z"
    fill="#d4a574"
    opacity="0.9"
  />
  <path
    d="M85 150 L88 147 L91 150 L88 153 Z"
    fill="#d4a574"
    opacity="0.9"
  />
  <path
    d="M115 150 L118 147 L121 150 L118 153 Z"
    fill="#d4a574"
    opacity="0.9"
  />
  
  <!-- Bottom Section - Hexagon Pattern -->
  <path
    d="M100 170 L105 165 L115 165 L120 170 L115 175 L105 175 Z"
    fill="#d4a574"
    opacity="0.9"
  />
  
  <!-- Lantern Base - Circular -->
  <ellipse
    cx="100"
    cy="200"
    rx="50"
    ry="15"
    fill="#654321"
  />
  <ellipse
    cx="100"
    cy="200"
    rx="47"
    ry="12"
    fill="#8b4513"
  />
  
  <!-- Inner Glow - Representing Light (Circular) -->
  <circle
    cx="100"
    cy="120"
    r="40"
    fill="#d4a574"
    opacity="0.2"
  />
  <circle
    cx="100"
    cy="120"
    r="30"
    fill="#d4a574"
    opacity="0.15"
  />
  
  <!-- Decorative Side Elements - Circular Arrangement -->
  <circle cx="70" cy="100" r="2.5" fill="#d4a574" />
  <circle cx="130" cy="100" r="2.5" fill="#d4a574" />
  <circle cx="70" cy="140" r="2.5" fill="#d4a574" />
  <circle cx="130" cy="140" r="2.5" fill="#d4a574" />
</svg>
